# xmcd
#
# Track frame offsets:
#	150
#	10075
#	18289
#	26439
#	37686
#	48318
#	60900
#	68528
#	77111
#	85310
#	93577
#	101736
#	115144
#	122685
#	134581
#	149398
#	157479
#	166604
#
# Disc length: 2333 seconds
#
# Revision: 0
# Processed by: cddbd v1.5.2PL0 Copyright (c) Steve Scherf et al.
# Submitted via: audiograbber 1.83.01
#
DISCID=df091b12
DTITLE=Eddie Pigeon - Eddie Pigeon and His Magic Fiddle
DYEAR=2001
DGENRE=Country
TTITLE0=Arnprior Waltz
TTITLE1=Buster Brown's Reel
TTITLE2=Carleton Place Jig
TTITLE3=Crystal Beach Waltz
TTITLE4=Danford Lake Clog
TTITLE5=Donna Mae Waltz
TTITLE6=Draper's Hornpipe
TTITLE7=Ed Pigeon's Reel
TTITLE8=Granny's Jig
TTITLE9=Julia's Two-Step
TTITLE10=Matthew's Hornpipe
TTITLE11=Old Porch "Swing" March
TTITLE12=Pauline Brown's Clog
TTITLE13=Rebecca Ann's Waltz
TTITLE14=Shaver Mountain Waltz
TTITLE15=Spike Spicer's Jig
TTITLE16=Uncle Herb Roach's Reel
TTITLE17=Valley Fiddler's Jig
EXTD=
EXTT0=
EXTT1=
EXTT2=
EXTT3=
EXTT4=
EXTT5=
EXTT6=
EXTT7=
EXTT8=
EXTT9=
EXTT10=
EXTT11=
EXTT12=
EXTT13=
EXTT14=
EXTT15=
EXTT16=
EXTT17=
PLAYORDER=
